<!DOCTYPE svg PUBLIC "-//W3C//DTD SVG 1.1//EN" "http://www.w3.org/Graphics/SVG/1.1/DTD/svg11.dtd">

<!-- Uploaded to: SVG Repo, www.svgrepo.com, Transformed by: SVG Repo Mixer Tools -->
<svg width="64px" height="64px" viewBox="0 0 24 24" version="1.1" xmlns="http://www.w3.org/2000/svg" xmlns:xlink="http://www.w3.org/1999/xlink" fill="#151345">

<g id="SVGRepo_bgCarrier" stroke-width="0"/>

<g id="SVGRepo_tracerCarrier" stroke-linecap="round" stroke-linejoin="round"/>

<g id="SVGRepo_iconCarrier"> <title/> <g fill="none" fill-rule="evenodd" id="页面-1" stroke="none" stroke-width="1"> <g id="导航图标" transform="translate(-251.000000, -207.000000)"> <g id="编组" transform="translate(251.000000, 207.000000)"> <rect fill="#ffffff" fill-opacity="0.01" fill-rule="nonzero" height="24" id="矩形" width="24" x="0" y="0"/> <path d="M18,16 C20.20915,16 22,14.20915 22,12 C22,9.79085 20.20915,8 18,8" id="路径"/> <path d="M18,16 L18,16 C20.20915,16 22,14.20915 22,12 C22,9.79085 20.20915,8 18,8" id="路径" stroke="#212121" stroke-linejoin="round" stroke-width="1.5"/> <path d="M6,8 C3.79086,8 2,9.79085 2,12 C2,14.20915 3.79086,16 6,16" id="路径"/> <path d="M6,8 C3.79086,8 2,9.79085 2,12 C2,14.20915 3.79086,16 6,16 L6,16" id="路径" stroke="#212121" stroke-linejoin="round" stroke-width="1.5"/> <path d="M6,16 L6,15.75 L6,14.5 L6,12 L6,8 C6,4.68629 8.6863,2 12,2 C15.3137,2 18,4.68629 18,8 L18,16 C18,19.3137 15.3137,22 12,22" id="路径" stroke="#212121" stroke-linecap="round" stroke-linejoin="round" stroke-width="1.5"/> </g> </g> </g> </g>

</svg>